<svg width="64" height="64" viewBox="0 0 64 64" fill="none" xmlns="http://www.w3.org/2000/svg">
<rect width="64" height="64" fill="#8C198C"/>
<path d="M19.5778 38.6335C19.7598 38.8343 19.9759 38.9937 20.2139 39.1024C20.4518 39.2111 20.7069 39.2671 20.9645 39.2671C21.2221 39.2671 21.4772 39.2111 21.7151 39.1024C21.953 38.9937 22.1692 38.8343 22.3512 38.6335L29.9828 30.2268L37.6144 38.6335C37.9822 39.0386 38.481 39.2662 39.0011 39.2662C39.5212 39.2662 40.02 39.0386 40.3878 38.6335C40.7556 38.2283 40.9622 37.6789 40.9622 37.106C40.9622 36.533 40.7556 35.9836 40.3878 35.5785L31.3596 25.6334C31.1777 25.4326 30.9615 25.2732 30.7236 25.1645C30.4856 25.0558 30.2306 24.9998 29.973 24.9998C29.7154 24.9998 29.4603 25.0558 29.2223 25.1645C28.9844 25.2732 28.7682 25.4326 28.5863 25.6334L19.5581 35.5785C18.8107 36.4018 18.8107 37.7885 19.5778 38.6335Z" fill="white"/>
</svg>
