<svg width="15" height="13" viewBox="0 0 15 13" fill="none" xmlns="http://www.w3.org/2000/svg">
<path d="M0.75 13H4.08V4.54H0.75V13ZM2.43 3.865C3.6 3.865 4.335 3.145 4.335 2.23C4.335 1.3 3.6 0.564999 2.43 0.564999C1.245 0.564999 0.51 1.3 0.51 2.23C0.51 3.145 1.245 3.865 2.43 3.865ZM11.284 13H14.599V8.095C14.599 5.905 13.459 4.48 11.509 4.48C10.234 4.48 9.39398 5.095 8.91398 5.83V4.54H5.58398V13H8.91398V8.515C8.91398 7.705 9.36398 7.21 10.099 7.21C10.819 7.21 11.284 7.705 11.284 8.515V13Z" fill="#221F1F"/>
</svg>
