<svg width="142" height="142" viewBox="0 0 142 142" fill="none" xmlns="http://www.w3.org/2000/svg">
<g clip-path="url(#clip0)">
<path d="M48.1785 79.0297L69.7321 103.964L83.6785 95.9344L94.244 69.7321L91.7083 41.4166L69.7321 11.8333L46.9106 41.4166L48.1785 79.0297Z" fill="#8C1081" fill-opacity="0.74"/>
<path d="M114.537 96.1639C140.792 74.1722 132.785 43.485 132.84 42.8612C130.912 42.6116 126.671 41.5915 120.279 41.705C119.083 27.4834 112.815 18.6824 112.12 17.1199C110.501 17.5694 100.643 18.4189 89.6866 25.5533C81.8056 14.2 72.5725 9.41136 71 8.17773C69.3318 9.48652 60.1778 14.2241 52.3134 25.5533C41.3117 18.3893 31.5118 17.573 29.8799 17.1199C29.1987 18.6522 22.9119 27.5424 21.7213 41.7047C15.3424 41.5915 11.0949 42.6108 9.16011 42.8612C9.20254 43.3535 1.58641 74.4601 27.4429 96.1434C9.22168 99.8179 0 105.386 0 112.744C0 119.477 7.66079 124.839 22.7694 128.681C35.8062 131.996 52.9349 133.822 71 133.822C97.7551 133.822 113.88 129.98 115.583 129.748L115.331 125.462L122.165 128.091C123.825 127.337 142 123.372 142 113.021C142 104.177 128.695 99.0821 114.537 96.1639ZM125.49 50.2111C127.837 75.6663 108.898 98.5493 82.8936 100.431C93.8271 89.5501 100.121 74.692 100.121 58.9394C100.121 57.6844 100.08 56.4355 100.001 55.1939C107.825 51.13 116.695 49.3968 125.49 50.2111ZM107.728 26.5407C110.098 31.5567 111.547 36.9729 112 42.4865C107.457 43.2681 103.017 44.6229 98.7973 46.5319C97.7576 41.7147 96.1196 37.075 93.9363 32.7124C98.1486 29.9231 102.829 27.8281 107.728 26.5407ZM71 18.2212C84.061 27.6606 91.8008 42.74 91.8008 58.9394C91.8008 75.128 84.0579 90.2188 71 99.6573C57.9418 90.2185 50.1992 75.128 50.1992 58.9394C50.1992 42.7403 57.9388 27.6606 71 18.2212ZM34.2722 26.5407C39.1712 27.8281 43.8511 29.9231 48.0637 32.7127C45.8799 37.0761 44.2416 41.7169 43.2018 46.5352C38.9837 44.6246 34.5437 43.2684 29.9997 42.4865C30.4529 36.9729 31.9017 31.557 34.2722 26.5407ZM16.5103 50.2108C25.3073 49.3954 34.179 51.1305 41.9984 55.1983C41.9197 56.4386 41.8789 57.6858 41.8789 58.9391C41.8789 74.692 48.1729 89.5498 59.1067 100.43C33.0988 98.5496 14.1637 75.6624 16.5103 50.2108ZM122.483 119.299L106.267 113.061L106.844 122.875C96.3301 124.575 83.765 125.502 71 125.502C53.6061 125.502 37.2057 123.767 24.8198 120.618C21.8902 119.873 8.32031 115.745 8.32031 112.744C8.56826 108.342 30.1625 103.936 37.5285 102.841C45.2012 106.784 53.7412 108.873 62.4298 108.872C65.2787 108.872 68.1456 108.648 71.0003 108.191C82.5594 110.041 94.278 108.075 104.467 102.841C120.308 105.204 133.68 110.074 133.68 113.021C133.68 113.58 131.645 116.369 122.483 119.299Z" fill="#22201F"/>
</g>
<defs>
<clipPath id="clip0">
<rect width="142" height="142" fill="white"/>
</clipPath>
</defs>
</svg>
