<svg width="24" height="25" viewBox="0 0 24 25" fill="none" xmlns="http://www.w3.org/2000/svg">
<rect y="0.575928" width="24" height="24" rx="12" fill="black"/>
<path fill-rule="evenodd" clip-rule="evenodd" d="M8.97667 5.28655C9.75867 5.25055 10.008 5.24255 12 5.24255C13.992 5.24255 14.2413 5.25122 15.0227 5.28655C15.804 5.32189 16.3373 5.44655 16.804 5.62722C17.2927 5.81189 17.736 6.10055 18.1027 6.47389C18.476 6.83989 18.764 7.28255 18.948 7.77189C19.1293 8.23855 19.2533 8.77189 19.2893 9.55189C19.3253 10.3352 19.3333 10.5846 19.3333 12.5759C19.3333 14.5679 19.3247 14.8172 19.2893 15.5992C19.254 16.3792 19.1293 16.9126 18.948 17.3792C18.764 17.8686 18.4755 18.312 18.1027 18.6786C17.736 19.0519 17.2927 19.3399 16.804 19.5239C16.3373 19.7052 15.804 19.8292 15.024 19.8652C14.2413 19.9012 13.992 19.9092 12 19.9092C10.008 19.9092 9.75867 19.9006 8.97667 19.8652C8.19667 19.8299 7.66334 19.7052 7.19667 19.5239C6.70729 19.3399 6.26389 19.0514 5.89734 18.6786C5.52426 18.3123 5.23555 17.8691 5.05134 17.3799C4.87067 16.9132 4.74667 16.3799 4.71067 15.5999C4.67467 14.8166 4.66667 14.5672 4.66667 12.5759C4.66667 10.5839 4.67534 10.3346 4.71067 9.55322C4.74601 8.77189 4.87067 8.23855 5.05134 7.77189C5.23582 7.28261 5.52475 6.83943 5.898 6.47322C6.26403 6.10022 6.70699 5.81152 7.196 5.62722C7.66267 5.44655 8.196 5.32255 8.976 5.28655H8.97667ZM14.9633 6.60655C14.19 6.57122 13.958 6.56389 12 6.56389C10.042 6.56389 9.81 6.57122 9.03667 6.60655C8.32134 6.63922 7.93334 6.75855 7.67467 6.85922C7.33267 6.99255 7.088 7.15055 6.83134 7.40722C6.58803 7.64392 6.40079 7.93207 6.28334 8.25055C6.18267 8.50922 6.06334 8.89722 6.03067 9.61255C5.99534 10.3859 5.988 10.6179 5.988 12.5759C5.988 14.5339 5.99534 14.7659 6.03067 15.5392C6.06334 16.2546 6.18267 16.6426 6.28334 16.9012C6.40067 17.2192 6.588 17.5079 6.83134 17.7446C7.068 17.9879 7.35667 18.1752 7.67467 18.2926C7.93334 18.3932 8.32134 18.5126 9.03667 18.5452C9.81 18.5806 10.0413 18.5879 12 18.5879C13.9587 18.5879 14.19 18.5806 14.9633 18.5452C15.6787 18.5126 16.0667 18.3932 16.3253 18.2926C16.6673 18.1592 16.912 18.0012 17.1687 17.7446C17.412 17.5079 17.5993 17.2192 17.7167 16.9012C17.8173 16.6426 17.9367 16.2546 17.9693 15.5392C18.0047 14.7659 18.012 14.5339 18.012 12.5759C18.012 10.6179 18.0047 10.3859 17.9693 9.61255C17.9367 8.89722 17.8173 8.50922 17.7167 8.25055C17.5833 7.90855 17.4253 7.66389 17.1687 7.40722C16.932 7.16393 16.6438 6.97669 16.3253 6.85922C16.0667 6.75855 15.6787 6.63922 14.9633 6.60655ZM11.0633 14.8366C11.5864 15.0543 12.1689 15.0837 12.7113 14.9197C13.2537 14.7557 13.7223 14.4085 14.0371 13.9374C14.3519 13.4663 14.4934 12.9005 14.4374 12.3366C14.3814 11.7728 14.1313 11.2459 13.73 10.8459C13.4742 10.5902 13.1648 10.3944 12.8242 10.2727C12.4836 10.1509 12.1203 10.1061 11.7603 10.1416C11.4004 10.1771 11.0528 10.292 10.7425 10.478C10.4323 10.6639 10.1672 10.9164 9.96621 11.2171C9.76525 11.5179 9.63346 11.8594 9.58035 12.2172C9.52723 12.575 9.55411 12.9401 9.65903 13.2862C9.76396 13.6324 9.94432 13.951 10.1872 14.219C10.43 14.4871 10.7292 14.698 11.0633 14.8366ZM9.33467 9.91055C9.68469 9.56054 10.1002 9.28289 10.5575 9.09346C11.0149 8.90403 11.505 8.80654 12 8.80654C12.495 8.80654 12.9852 8.90403 13.4425 9.09346C13.8998 9.28289 14.3153 9.56054 14.6653 9.91055C15.0154 10.2606 15.293 10.6761 15.4824 11.1334C15.6719 11.5907 15.7694 12.0809 15.7694 12.5759C15.7694 13.0709 15.6719 13.561 15.4824 14.0184C15.293 14.4757 15.0154 14.8912 14.6653 15.2412C13.9584 15.9481 12.9997 16.3452 12 16.3452C11.0003 16.3452 10.0416 15.9481 9.33467 15.2412C8.62778 14.5343 8.23065 13.5756 8.23065 12.5759C8.23065 11.5762 8.62778 10.6174 9.33467 9.91055ZM16.6053 9.36789C16.6921 9.28607 16.7615 9.18767 16.8095 9.07854C16.8576 8.9694 16.8832 8.85173 16.8849 8.73251C16.8867 8.61328 16.8645 8.49492 16.8197 8.38443C16.7748 8.27393 16.7083 8.17356 16.624 8.08925C16.5397 8.00493 16.4393 7.93839 16.3288 7.89357C16.2183 7.84874 16.0999 7.82654 15.9807 7.82828C15.8615 7.83001 15.7438 7.85566 15.6347 7.90368C15.5255 7.95171 15.4272 8.02115 15.3453 8.10789C15.1862 8.27657 15.0991 8.50063 15.1025 8.73251C15.1059 8.96438 15.1995 9.18581 15.3634 9.34978C15.5274 9.51376 15.7488 9.60737 15.9807 9.61075C16.2126 9.61413 16.4367 9.52701 16.6053 9.36789Z" fill="white"/>
</svg>
