<svg width="872" height="1566" viewBox="0 0 872 1566" fill="none" xmlns="http://www.w3.org/2000/svg">
<path fill-rule="evenodd" clip-rule="evenodd" d="M1251.05 346.312C1298.57 430.282 1219.97 545.255 1210.4 648.177C1201.42 744.8 1253.83 842.004 1196.83 929.789C1139.1 1018.69 1023.22 1049.65 924.13 1089.01C826.736 1127.71 728.095 1163.14 630.716 1154.69C524.928 1145.51 422.842 1112.72 357.72 1039.87C290.393 964.549 245.121 859.826 270.52 751.738C294.744 648.653 396.317 571.59 484.676 499.597C552.414 444.405 636.952 431.858 713.531 390.78C805.368 341.517 878.201 243.725 976.9 235.56C1085.4 226.585 1202.99 261.371 1251.05 346.312Z" fill="#8C198C"/>
<path fill-rule="evenodd" clip-rule="evenodd" d="M1279.37 333.685C1330.1 423.338 1246.18 546.09 1235.97 655.977C1226.38 759.138 1282.34 862.92 1221.47 956.645C1159.84 1051.56 1036.12 1084.61 930.323 1126.64C826.339 1167.95 721.022 1205.78 617.054 1196.76C504.108 1186.96 395.114 1151.95 325.586 1074.17C253.703 993.757 205.367 881.948 232.485 766.546C258.348 656.485 366.794 574.208 461.132 497.343C533.454 438.416 623.713 425.02 705.473 381.162C803.524 328.566 881.286 224.157 986.664 215.439C1102.5 205.856 1228.05 242.997 1279.37 333.685Z" stroke="#8C198C"/>
<path fill-rule="evenodd" clip-rule="evenodd" d="M1315.52 329.766C1371.87 429.334 1278.66 565.661 1267.32 687.7C1256.67 802.269 1318.82 917.528 1251.22 1021.62C1182.77 1127.03 1045.37 1163.74 927.873 1210.42C812.389 1256.3 695.426 1298.31 579.96 1288.29C454.523 1277.41 333.476 1238.53 256.258 1152.14C176.426 1062.83 122.745 938.661 152.861 810.497C181.584 688.264 302.024 596.888 406.795 511.523C487.114 446.079 587.355 431.202 678.157 382.494C787.051 324.081 873.413 208.125 990.444 198.444C1119.09 187.801 1258.52 229.049 1315.52 329.766Z" stroke="#8C198C"/>
</svg>
