<svg width="152" height="152" viewBox="0 0 152 152" fill="none" xmlns="http://www.w3.org/2000/svg">
<g clip-path="url(#clip0)">
<path d="M121.277 108.745L128.958 111.979L118.447 116.021L120.064 124.511L109.958 128.957L61.8512 132.191H33.9576L1.61719 108.745L6.87251 83.2766L44.4683 108.745H76.0002H121.277Z" fill="#8C198C" fill-opacity="0.74"/>
<path d="M111.724 135.184H36.4117L0 108.087V53.9928L48.7229 16.8154H111.399V26.291C111.399 30.1612 110.225 33.7629 108.215 36.7582L122.896 53.8127L108.332 72.5441H138.593C145.985 72.5441 152 78.5584 152 85.9507C152 93.3431 145.985 99.3573 138.593 99.3573H136.293C136.797 100.766 137.072 102.284 137.072 103.864C137.072 111.028 131.423 116.899 124.345 117.254C124.853 118.667 125.13 120.191 125.13 121.777C125.13 129.17 119.116 135.184 111.724 135.184ZM39.3601 126.284H111.724C114.208 126.284 116.23 124.262 116.23 121.778C116.23 119.293 114.208 117.271 111.724 117.271H75.7017V108.371H123.665C126.15 108.371 128.172 106.349 128.172 103.864C128.172 101.379 126.15 99.3579 123.665 99.3579H75.7017V90.4576H138.593C141.078 90.4576 143.1 88.436 143.1 85.9513C143.1 83.4666 141.078 81.4451 138.593 81.4451H75.7017V72.5447H97.0581L111.399 54.0999L101.656 42.781C98.9598 44.2724 95.8613 45.1224 92.5685 45.1224H92.3368L97.7295 51.8481L87.4674 63.5319H46.6118L64.3273 36.2221H92.5685C98.0443 36.2221 102.499 31.7671 102.499 26.2916V25.7164H51.7307L8.90036 58.397V103.616L39.3601 126.284ZM62.9941 54.631H83.4385L86.1121 51.5867L80.9286 45.1218H69.1626L62.9941 54.631Z" fill="#22201F"/>
</g>
<defs>
<clipPath id="clip0">
<rect width="152" height="152" fill="white"/>
</clipPath>
</defs>
</svg>
