<svg width="190" height="55" viewBox="0 0 190 55" fill="none" xmlns="http://www.w3.org/2000/svg">
<rect width="190" height="55" fill="#8C198C"/>
<path d="M138.634 16.5778C138.433 16.7598 138.273 16.9759 138.165 17.2139C138.056 17.4518 138 17.7069 138 17.9645C138 18.2221 138.056 18.4772 138.165 18.7151C138.273 18.953 138.433 19.1692 138.634 19.3512L147.04 26.9828L138.634 34.6144C138.229 34.9822 138.001 35.481 138.001 36.0011C138.001 36.5212 138.229 37.02 138.634 37.3878C139.039 37.7556 139.588 37.9622 140.161 37.9622C140.734 37.9622 141.284 37.7556 141.689 37.3878L151.634 28.3596C151.835 28.1777 151.994 27.9615 152.103 27.7236C152.211 27.4856 152.267 27.2306 152.267 26.973C152.267 26.7154 152.211 26.4603 152.103 26.2223C151.994 25.9844 151.835 25.7682 151.634 25.5863L141.689 16.5581C140.865 15.8107 139.479 15.8107 138.634 16.5778Z" fill="white"/>
<rect width="95" height="55" fill="white"/>
<path d="M53.6335 37.3844C53.8343 37.2024 53.9937 36.9862 54.1024 36.7483C54.2111 36.5104 54.2671 36.2553 54.2671 35.9977C54.2671 35.7401 54.2111 35.485 54.1024 35.2471C53.9937 35.0091 53.8343 34.793 53.6335 34.611L45.2268 26.9794L53.6335 19.3477C54.0386 18.98 54.2662 18.4812 54.2662 17.9611C54.2662 17.441 54.0386 16.9421 53.6335 16.5744C53.2283 16.2066 52.6789 16 52.106 16C51.533 16 50.9836 16.2066 50.5785 16.5744L40.6335 25.6025C40.4326 25.7845 40.2733 26.0006 40.1645 26.2386C40.0558 26.4765 39.9998 26.7316 39.9998 26.9892C39.9998 27.2468 40.0558 27.5019 40.1645 27.7398C40.2733 27.9778 40.4326 28.1939 40.6335 28.3759L50.5785 37.404C51.4018 38.1514 52.7885 38.1514 53.6335 37.3844Z" fill="#8C198C"/>
</svg>
