<svg width="537" height="804" viewBox="0 0 537 804" fill="none" xmlns="http://www.w3.org/2000/svg">
<path fill-rule="evenodd" clip-rule="evenodd" d="M342.247 158.467C369.79 201.545 324.429 266.514 318.98 322.14C313.863 374.362 344.244 424.337 311.351 473.817C278.04 523.926 211.066 545.365 153.8 570.618C97.5157 595.437 40.5083 618.559 -15.8036 618.082C-76.9784 617.564 -136.031 604.222 -173.742 567.843C-212.73 530.233 -238.989 475.925 -224.388 416.867C-210.462 360.543 -151.792 314.96 -100.759 272.647C-61.6354 240.209 -12.7644 229.955 31.4817 204.722C84.5439 174.462 126.58 118.953 183.642 110.46C246.368 101.123 314.387 114.89 342.247 158.467Z" stroke="#8C198C"/>
<path fill-rule="evenodd" clip-rule="evenodd" d="M362.061 154.861C392.707 202.633 342.291 274.669 336.253 336.35C330.585 394.256 364.391 449.677 327.833 504.539C290.81 560.099 216.339 583.863 152.666 611.858C90.0852 639.372 26.699 665.004 -35.9235 664.468C-103.954 663.886 -169.629 649.084 -211.581 608.74C-254.954 567.03 -284.178 506.807 -267.965 441.321C-252.502 378.867 -187.277 328.329 -130.542 281.416C-87.0476 245.452 -32.7044 234.087 16.4895 206.113C75.4854 172.565 122.209 111.018 185.662 101.608C255.414 91.2628 331.06 106.537 362.061 154.861Z" stroke="#8C198C"/>
</svg>
