<svg width="14" height="14" viewBox="0 0 14 14" fill="none" xmlns="http://www.w3.org/2000/svg">
<mask id="path-1-inside-1" fill="white">
<path d="M13.5528 12.7518L10.2208 9.28631C11.0775 8.26788 11.5469 6.98648 11.5469 5.65249C11.5469 2.53576 9.01117 0 5.89444 0C2.7777 0 0.241943 2.53576 0.241943 5.65249C0.241943 8.76923 2.7777 11.305 5.89444 11.305C7.0645 11.305 8.17952 10.9521 9.13282 10.2821L12.4902 13.7739C12.6305 13.9196 12.8192 14 13.0215 14C13.2129 14 13.3946 13.927 13.5324 13.7943C13.8254 13.5124 13.8347 13.045 13.5528 12.7518ZM5.89444 1.47456C8.1982 1.47456 10.0724 3.34873 10.0724 5.65249C10.0724 7.95625 8.1982 9.83043 5.89444 9.83043C3.59068 9.83043 1.71651 7.95625 1.71651 5.65249C1.71651 3.34873 3.59068 1.47456 5.89444 1.47456Z"/>
</mask>
<path d="M13.5528 12.7518L10.2208 9.28631C11.0775 8.26788 11.5469 6.98648 11.5469 5.65249C11.5469 2.53576 9.01117 0 5.89444 0C2.7777 0 0.241943 2.53576 0.241943 5.65249C0.241943 8.76923 2.7777 11.305 5.89444 11.305C7.0645 11.305 8.17952 10.9521 9.13282 10.2821L12.4902 13.7739C12.6305 13.9196 12.8192 14 13.0215 14C13.2129 14 13.3946 13.927 13.5324 13.7943C13.8254 13.5124 13.8347 13.045 13.5528 12.7518ZM5.89444 1.47456C8.1982 1.47456 10.0724 3.34873 10.0724 5.65249C10.0724 7.95625 8.1982 9.83043 5.89444 9.83043C3.59068 9.83043 1.71651 7.95625 1.71651 5.65249C1.71651 3.34873 3.59068 1.47456 5.89444 1.47456Z" fill="black"/>
<path d="M13.5528 12.7518L14.9946 11.3656L14.9945 11.3656L13.5528 12.7518ZM10.2208 9.28631L8.69031 7.99884L7.53216 9.3756L8.77911 10.6725L10.2208 9.28631ZM9.13282 10.2821L10.5745 8.89594L9.38594 7.65978L7.98287 8.64579L9.13282 10.2821ZM12.4902 13.7739L11.0485 15.1601L11.0495 15.1611L12.4902 13.7739ZM13.5324 13.7943L12.1457 12.3531L12.1454 12.3534L13.5324 13.7943ZM14.9945 11.3656L11.6625 7.90013L8.77911 10.6725L12.1111 14.138L14.9945 11.3656ZM11.7513 10.5738C12.9102 9.19608 13.5469 7.45911 13.5469 5.65249H9.54693C9.54693 6.51386 9.24481 7.33968 8.69031 7.99884L11.7513 10.5738ZM13.5469 5.65249C13.5469 1.43119 10.1157 -2 5.89444 -2V2C7.9066 2 9.54693 3.64033 9.54693 5.65249H13.5469ZM5.89444 -2C1.67313 -2 -1.75806 1.43119 -1.75806 5.65249H2.24194C2.24194 3.64033 3.88227 2 5.89444 2V-2ZM-1.75806 5.65249C-1.75806 9.8738 1.67313 13.305 5.89444 13.305V9.30499C3.88227 9.30499 2.24194 7.66466 2.24194 5.65249H-1.75806ZM5.89444 13.305C7.47556 13.305 8.99225 12.8254 10.2828 11.9185L7.98287 8.64579C7.36678 9.07876 6.65345 9.30499 5.89444 9.30499V13.305ZM7.69113 11.6683L11.0485 15.1601L13.9319 12.3877L10.5745 8.89594L7.69113 11.6683ZM11.0495 15.1611C11.5664 15.6979 12.275 16 13.0215 16V12C13.3634 12 13.6946 12.1413 13.9308 12.3867L11.0495 15.1611ZM13.0215 16C13.7285 16 14.4077 15.7278 14.9194 15.2352L12.1454 12.3534C12.3814 12.1262 12.6974 12 13.0215 12V16ZM14.9192 15.2355C16.0071 14.1886 16.0424 12.4555 14.9946 11.3656L12.1111 14.1379C11.627 13.6344 11.6436 12.8363 12.1457 12.3531L14.9192 15.2355ZM5.89444 3.47456C7.09363 3.47456 8.07237 4.4533 8.07237 5.65249H12.0724C12.0724 2.24417 9.30277 -0.525436 5.89444 -0.525436V3.47456ZM8.07237 5.65249C8.07237 6.85169 7.09363 7.83043 5.89444 7.83043V11.8304C9.30277 11.8304 12.0724 9.06082 12.0724 5.65249H8.07237ZM5.89444 7.83043C4.69525 7.83043 3.71651 6.85169 3.71651 5.65249H-0.283493C-0.283493 9.06082 2.48611 11.8304 5.89444 11.8304V7.83043ZM3.71651 5.65249C3.71651 4.4533 4.69525 3.47456 5.89444 3.47456V-0.525436C2.48611 -0.525436 -0.283493 2.24417 -0.283493 5.65249H3.71651Z" fill="#221F1F" mask="url(#path-1-inside-1)"/>
</svg>
