<svg width="24" height="25" viewBox="0 0 24 25" fill="none" xmlns="http://www.w3.org/2000/svg">
<rect y="0.575928" width="24" height="24" rx="12" fill="black"/>
<path d="M19.9957 7.11796C19.4076 7.37855 18.7759 7.55462 18.1118 7.6342C18.797 7.22417 19.3097 6.57881 19.5541 5.81857C18.9103 6.20098 18.2057 6.47016 17.4709 6.6144C16.9767 6.0868 16.3222 5.7371 15.609 5.61959C14.8957 5.50208 14.1636 5.62333 13.5263 5.96453C12.8891 6.30573 12.3823 6.84778 12.0846 7.50652C11.787 8.16526 11.7151 8.90385 11.8803 9.6076C10.5757 9.5421 9.29952 9.20303 8.1345 8.61238C6.96947 8.02174 5.94166 7.19273 5.11776 6.17916C4.83605 6.66511 4.67406 7.22854 4.67406 7.82859C4.67375 8.36877 4.80677 8.90067 5.06133 9.37711C5.31589 9.85355 5.68412 10.2598 6.13333 10.5598C5.61236 10.5432 5.10288 10.4024 4.6473 10.1492V10.1914C4.64725 10.9491 4.90932 11.6834 5.38904 12.2698C5.86876 12.8562 6.53659 13.2585 7.2792 13.4086C6.79591 13.5394 6.28922 13.5587 5.79739 13.465C6.00691 14.1168 6.41504 14.6869 6.96465 15.0953C7.51425 15.5037 8.17781 15.73 8.86243 15.7426C7.70024 16.6549 6.26496 17.1498 4.78745 17.1476C4.52573 17.1477 4.26423 17.1324 4.00429 17.1019C5.50404 18.0661 7.24986 18.5779 9.03286 18.5759C15.0686 18.5759 18.3681 13.5769 18.3681 9.24137C18.3681 9.10052 18.3646 8.95825 18.3583 8.8174C19.0001 8.35326 19.5541 7.77851 19.9943 7.12008L19.9957 7.11796Z" fill="white"/>
</svg>
