<svg width="18" height="18" viewBox="0 0 18 18" fill="none" xmlns="http://www.w3.org/2000/svg">
<g clip-path="url(#clip0)">
<path d="M18 3.41887C17.3375 3.71243 16.6266 3.91152 15.8797 4.0004C16.6424 3.54372 17.2261 2.81937 17.5028 1.95891C16.7874 2.38182 15.9978 2.6889 15.1565 2.85537C14.4827 2.13664 13.5244 1.68896 12.4615 1.68896C10.4222 1.68896 8.76879 3.3424 8.76879 5.38051C8.76879 5.66957 8.80141 5.9519 8.86441 6.22187C5.796 6.06775 3.07515 4.59766 1.25412 2.36382C0.935794 2.90823 0.754706 3.54258 0.754706 4.21972C0.754706 5.50087 1.40709 6.63128 2.39691 7.29263C1.79176 7.27239 1.22262 7.10592 0.724353 6.82922V6.87533C0.724353 8.66374 1.99762 10.1563 3.68591 10.496C3.37659 10.5793 3.05041 10.6254 2.71297 10.6254C2.47453 10.6254 2.24394 10.6018 2.01785 10.5568C2.488 12.0246 3.85126 13.092 5.46647 13.1213C4.20332 14.1111 2.61062 14.6994 0.880706 14.6994C0.582647 14.6994 0.289059 14.6814 0 14.6488C1.63432 15.6982 3.57459 16.3101 5.65994 16.3101C12.4525 16.3101 16.1655 10.6839 16.1655 5.80457L16.1531 5.32654C16.8786 4.8091 17.5062 4.15899 18 3.41887Z" fill="#221F1F"/>
</g>
<defs>
<clipPath id="clip0">
<rect width="18" height="18" fill="white"/>
</clipPath>
</defs>
</svg>
