<svg width="134" height="134" viewBox="0 0 134 134" fill="none" xmlns="http://www.w3.org/2000/svg">
<g clip-path="url(#clip0)">
<path d="M41.5 75L29 72.5H14L5.5 79C4 83.1667 1 92.2 1 95V105.5V109.5C3.16667 112.333 7.8 118.7 9 121.5C10.2 124.3 14.8333 127 17 128H32C35 128 37 129 41.5 128C45.1 127.2 49.6667 123.333 51.5 121.5L58 109.5V99L51.5 82L41.5 75Z" fill="#8C198C" fill-opacity="0.74"/>
<path d="M28.7445 86.7913C21.2656 86.7913 15.1812 92.8757 15.1812 100.355C15.1812 107.833 21.2656 113.918 28.7445 113.918C36.2234 113.918 42.3078 107.833 42.3078 100.355C42.3078 92.8757 36.2231 86.7913 28.7445 86.7913ZM28.7445 106.062C25.5975 106.062 23.0374 103.502 23.0374 100.355C23.0374 97.2076 25.5975 94.6475 28.7445 94.6475C31.8914 94.6475 34.4515 97.2076 34.4515 100.355C34.4515 103.502 31.8912 106.062 28.7445 106.062Z" fill="#22201F"/>
<path d="M57.2192 29.7172C55.2978 15.7195 43.2615 4.90088 28.7442 4.90088C12.8947 4.90114 0 17.7959 0 33.6454V100.354C0 116.204 12.8947 129.099 28.7445 129.099H134V29.7172H57.2192ZM7.85626 33.6454C7.85626 22.1278 17.2267 12.7571 28.7445 12.7571C40.2623 12.7571 49.6327 22.1276 49.6327 33.6454V80.6292C44.3889 75.0793 36.9645 71.6099 28.7445 71.6099C20.5245 71.6099 13.1003 75.079 7.85626 80.6292V33.6454ZM7.85626 100.354C7.85626 88.8369 17.2267 79.4662 28.7445 79.4662C40.2623 79.4662 49.6327 88.8366 49.6327 100.354C49.6327 111.872 40.2623 121.243 28.7445 121.243C17.2267 121.243 7.85626 111.872 7.85626 100.354ZM126.144 121.243H48.4697C54.0196 115.999 57.489 108.574 57.489 100.354V37.5735H126.144V121.243H126.144Z" fill="#22201F"/>
<path d="M63.9465 46.6716H71.8028V57.1474H63.9465V46.6716Z" fill="#22201F"/>
<path d="M79.6599 46.6716H87.5162V57.1474H79.6599V46.6716Z" fill="#22201F"/>
<path d="M95.3733 46.6716H103.23V57.1474H95.3733V46.6716Z" fill="#22201F"/>
<path d="M111.087 46.6716H118.943V57.1474H111.087V46.6716Z" fill="#22201F"/>
<path d="M63.9465 65.0042H71.8028V75.4797H63.9465V65.0042Z" fill="#22201F"/>
<path d="M79.6599 65.0042H87.5162V75.4797H79.6599V65.0042Z" fill="#22201F"/>
<path d="M95.3733 65.0042H103.23V75.4797H95.3733V65.0042Z" fill="#22201F"/>
<path d="M111.087 65.0042H118.943V75.4797H111.087V65.0042Z" fill="#22201F"/>
<path d="M63.9465 83.3362H71.8028V93.812H63.9465V83.3362Z" fill="#22201F"/>
<path d="M79.6599 83.3362H87.5162V93.812H79.6599V83.3362Z" fill="#22201F"/>
<path d="M95.3733 83.3362H103.23V93.812H95.3733V83.3362Z" fill="#22201F"/>
<path d="M111.087 83.3362H118.943V93.812H111.087V83.3362Z" fill="#22201F"/>
<path d="M63.9465 101.669H71.8028V112.144H63.9465V101.669Z" fill="#22201F"/>
<path d="M79.6599 101.669H87.5162V112.144H79.6599V101.669Z" fill="#22201F"/>
<path d="M95.3733 101.669H103.23V112.144H95.3733V101.669Z" fill="#22201F"/>
<path d="M111.087 101.669H118.943V112.144H111.087V101.669Z" fill="#22201F"/>
</g>
<defs>
<clipPath id="clip0">
<rect width="134" height="134" fill="white"/>
</clipPath>
</defs>
</svg>
